<?xml version="1.0" encoding="UTF-8" standalone="no"?><!-- Generator: Gravit.io --><svg xmlns="http://www.w3.org/2000/svg" xmlns:xlink="http://www.w3.org/1999/xlink" style="isolation:isolate" viewBox="32.135 217 17.73 17.454" width="17.73pt" height="17.454pt"><g><g><path d=" M 37.2 227.002 L 48.298 217.236 C 48.69 216.891 49.286 216.929 49.63 217.32 C 49.947 217.682 49.939 218.217 49.63 218.567 L 39.864 229.665 C 39.175 230.448 37.983 230.524 37.2 229.836 C 36.418 229.147 36.341 227.955 37.03 227.172 C 37.082 227.114 37.144 227.052 37.2 227.002 Z  M 32.136 234.319 C 32.066 234.605 35.445 234.583 36.871 232.749 C 37.793 231.564 37.556 230.405 36.631 229.824 C 35.419 229.064 34.137 229.796 33.989 230.69 C 33.658 232.686 33.614 233.302 32.136 234.319 Z " fill="rgb(0,0,0)"/></g></g></svg>