<?xml version="1.0" encoding="UTF-8" standalone="no"?><!-- Generator: Gravit.io --><svg xmlns="http://www.w3.org/2000/svg" xmlns:xlink="http://www.w3.org/1999/xlink" style="isolation:isolate" viewBox="32.176 380.621 15.915 18.379" width="15.915pt" height="18.379pt"><g><g><path d=" M 48.092 393.569 L 48.092 397.737 C 48.092 398.436 47.526 399 46.829 399 L 33.439 399 C 32.742 399 32.176 398.436 32.176 397.737 L 32.176 393.569 C 32.176 392.871 32.742 392.305 33.439 392.305 C 34.137 392.305 34.703 392.871 34.703 393.569 L 34.703 396.474 L 45.565 396.474 L 45.565 393.569 C 45.565 392.871 46.131 392.305 46.829 392.305 C 47.526 392.305 48.092 392.871 48.092 393.569 Z  M 39.241 394.651 C 39.487 394.897 39.811 395.021 40.134 395.021 C 40.459 395.021 40.78 394.897 41.028 394.651 L 44.818 390.862 C 45.312 390.37 45.312 389.57 44.818 389.076 C 44.324 388.583 43.524 388.583 43.032 389.076 L 41.399 390.709 L 41.399 381.884 C 41.399 381.186 40.834 380.621 40.136 380.621 C 39.438 380.621 38.873 381.186 38.873 381.884 L 38.873 390.709 L 37.24 389.076 C 36.746 388.583 35.946 388.583 35.454 389.076 C 34.96 389.571 34.96 390.37 35.454 390.862 L 39.241 394.651 Z " fill="rgb(0,0,0)"/></g></g></svg>