<?xml version="1.0" encoding="UTF-8" standalone="no"?><!-- Generator: Gravit.io --><svg xmlns="http://www.w3.org/2000/svg" xmlns:xlink="http://www.w3.org/1999/xlink" style="isolation:isolate" viewBox="32 271 18 15" width="18pt" height="15pt"><path d=" M 49.25 271 L 32.75 271 C 32.336 271 32 271.336 32 271.75 L 32 285.25 C 32 285.664 32.336 286 32.75 286 L 49.25 286 C 49.664 286 50 285.664 50 285.25 L 50 271.75 C 50 271.336 49.664 271 49.25 271 Z  M 42.5 274 C 43.743 274 44.75 275.007 44.75 276.25 C 44.75 277.493 43.743 278.5 42.5 278.5 C 41.257 278.5 40.25 277.493 40.25 276.25 C 40.251 275.008 41.258 274.001 42.5 274 L 42.5 274 Z  M 48.5 284.5 L 33.5 284.5 L 33.5 277.75 L 36.5 274 L 42.5 282.25 L 46.25 279.25 L 48.5 281.5 L 48.5 284.5 Z " fill="rgb(0,0,0)"/></svg>