<?xml version="1.0" encoding="UTF-8" standalone="no"?><!-- Generator: Gravit.io --><svg xmlns="http://www.w3.org/2000/svg" xmlns:xlink="http://www.w3.org/1999/xlink" style="isolation:isolate" viewBox="34.665 329 12.67 17" width="12.67pt" height="17pt"><g><g><g><path d=" M 36.152 345.18 C 36.171 345.638 36.548 346 37.007 346 L 44.993 346 C 45.452 346 45.829 345.638 45.848 345.18 L 46.419 333.14 L 35.581 333.14 L 36.152 345.18 Z  M 42.807 336.13 C 42.807 335.938 42.962 335.783 43.154 335.783 L 43.71 335.783 C 43.902 335.783 44.058 335.938 44.058 336.13 L 44.058 343.009 C 44.058 343.201 43.902 343.357 43.71 343.357 L 43.154 343.357 C 42.962 343.357 42.807 343.201 42.807 343.009 L 42.807 336.13 Z  M 40.375 336.13 C 40.375 335.938 40.53 335.783 40.722 335.783 L 41.278 335.783 C 41.47 335.783 41.625 335.938 41.625 336.13 L 41.625 343.009 C 41.625 343.201 41.47 343.357 41.278 343.357 L 40.722 343.357 C 40.53 343.357 40.375 343.201 40.375 343.009 L 40.375 336.13 L 40.375 336.13 Z  M 37.943 336.13 C 37.943 335.938 38.098 335.783 38.29 335.783 L 38.846 335.783 C 39.038 335.783 39.193 335.938 39.193 336.13 L 39.193 343.009 C 39.193 343.201 39.038 343.357 38.846 343.357 L 38.29 343.357 C 38.098 343.357 37.943 343.201 37.943 343.009 L 37.943 336.13 Z " fill="rgb(0,0,0)"/><path d=" M 46.798 329.876 L 43.114 329.876 L 43.114 329.179 C 43.114 329.08 43.034 329 42.935 329 L 39.065 329 C 38.966 329 38.886 329.08 38.886 329.179 L 38.886 329.876 L 35.202 329.876 C 34.905 329.876 34.665 330.116 34.665 330.413 L 34.665 332.099 L 47.335 332.099 L 47.335 330.413 C 47.335 330.116 47.095 329.876 46.798 329.876 Z " fill="rgb(0,0,0)"/></g></g></g></svg>