<?xml version="1.0" encoding="UTF-8" standalone="no"?><!-- Generator: Gravit.io --><svg xmlns="http://www.w3.org/2000/svg" xmlns:xlink="http://www.w3.org/1999/xlink" style="isolation:isolate" viewBox="34.316 164.143 13.369 12.857" width="13.369pt" height="12.857pt"><g><path d=" M 34.316 164.143 L 45.029 164.143 L 45.029 166.908 L 43.359 166.903 L 43.359 166.223 C 43.359 165.875 43.088 165.591 42.742 165.572 L 40.61 165.572 L 40.61 174.757 C 40.625 175.151 40.944 175.458 41.338 175.458 L 41.929 175.458 L 41.934 176.978 L 37.413 176.978 L 37.418 175.458 L 38.009 175.458 C 38.398 175.458 38.716 175.156 38.737 174.769 L 38.737 165.572 L 36.603 165.572 C 36.257 165.591 35.987 165.875 35.987 166.223 L 35.987 166.903 L 34.316 166.908 L 34.316 164.143 Z  M 46.561 177 L 47.684 177 L 47.684 164.143 L 46.561 164.143 L 46.561 177 Z " fill="rgb(0,0,0)"/></g></svg>